# xmcd
#
# Track frame offsets: 
#        150
#        11063
#        21616
#        34302
#        46841
#        57572
#        70130
#        81646
#        93988
#        103460
#        116790
#        129636
#        151070
#        163605
#        178892
#
# Disc length: 2624 seconds
#
# Revision: 0
# Processed by: cddbd v1.5.2PL0 Copyright (c) Steve Scherf et al.
# Submitted via: ExactAudioCopy v0.99pb4
#
DISCID=da0a3e0f
DTITLE=Various Artist - The Best of Country
DYEAR=1980
DGENRE=Country
TTITLE0=Roger Miller - King of the road
TTITLE1=Willie Nelson - No tomorrow in sight
TTITLE2=Frankie Laine - High Noon 
TTITLE3=Jonny Cash - I walk the line
TTITLE4=Ricky Nelson - Travelin Man
TTITLE5=Lynn Andersson - Stand By Your Man
TTITLE6=Jonny Roman - Treat Me Like a Man
TTITLE7=Willie Nelson - I feel Sorry for Him
TTITLE8=Bellamy Brothers - Let your love flow
TTITLE9=Hank Williams - Jambalaya
TTITLE10=Willie Nelson - Any Ol arms won't go
TTITLE11=Jonny Cash - Banks of the Ohio
TTITLE12=Ray Price - Let it rain let her cry
TTITLE13=Willie Nelson - Right from wrong
TTITLE14=Ricky Nelson - Garden Party
EXTD=
EXTT0=
EXTT1=
EXTT2=
EXTT3=
EXTT4=
EXTT5=
EXTT6=
EXTT7=
EXTT8=
EXTT9=
EXTT10=
EXTT11=
EXTT12=
EXTT13=
EXTT14=
PLAYORDER=
